<?xml version="1.0" encoding="utf-8"?>
<!-- Generator: Adobe Illustrator 16.0.0, SVG Export Plug-In . SVG Version: 6.00 Build 0)  -->
<!DOCTYPE svg PUBLIC "-//W3C//DTD SVG 1.1//EN" "http://www.w3.org/Graphics/SVG/1.1/DTD/svg11.dtd">
<svg version="1.1"
	 id="svg1" xmlns:svg="http://www.w3.org/2000/svg" xmlns:cc="http://creativecommons.org/ns#" xmlns:dc="http://purl.org/dc/elements/1.1/" xmlns:rdf="http://www.w3.org/1999/02/22-rdf-syntax-ns#"
	 xmlns="http://www.w3.org/2000/svg" xmlns:xlink="http://www.w3.org/1999/xlink" x="0px" y="0px" width="256.902px"
	 height="185.5px" viewBox="0 0 256.902 185.5" enable-background="new 0 0 256.902 185.5" xml:space="preserve">

<g enable-background="new    ">
	<path fill="#00B0F0" d="M130.075,123.389l0.569-7.227l-15.139-3.434c-0.128-2.521-0.451-4.999-0.958-7.415l13.902-7.41
		l-2.301-6.873l-15.504,2.798l-0.068,0.022c-0.936-1.884-1.995-3.695-3.161-5.434l10.096-12.057l-4.708-5.513l-13.328,8.401
		l-0.021,0.019c-1.646-1.469-3.396-2.825-5.238-4.062l4.477-14.692l-6.486-3.233l-8.705,12.535
		c-2.228-0.787-4.532-1.416-6.905-1.876l-1.38-15.296l-7.227-0.556l-3.385,15.047c-2.498,0.142-4.951,0.474-7.343,0.987l0.324-0.116
		l-7.793-14.085l-6.837,2.408l3.04,15.457l0.082,0.232c-1.858,0.919-3.647,1.958-5.365,3.102l-11.878-9.946l-5.512,4.708
		l8.267,13.115c-1.445,1.604-2.783,3.306-4.006,5.097l-14.562-4.437l-3.233,6.487l12.341,8.569
		c-0.822,2.255-1.481,4.593-1.963,7.001l-15.453,1.368l-0.569,7.227l15.138,3.432c0.121,2.394,0.419,4.743,0.883,7.041
		l-13.052,6.957l2.301,6.875l14.503-2.615c0.954,1.992,2.039,3.911,3.25,5.745l-9.827,11.733l4.708,5.512l12.908-8.136
		c1.935,1.766,4.009,3.385,6.22,4.821l-4.56,14.967l6.486,3.234l8.986-12.939l0.001-0.002c1.828,0.61,3.71,1.107,5.634,1.499
		l1.408,15.604l7.228,0.555l3.429-15.238c2.969-0.144,5.877-0.552,8.694-1.217l7.196,13.004l6.837-2.408l-2.898-14.741
		c1.523-0.794,2.999-1.67,4.424-2.617l11.913,9.977l5.512-4.709l-8.286-13.145c1.786-1.979,3.416-4.104,4.86-6.364l15.112,4.604
		l3.234-6.485l-12.939-8.986l-0.229-0.113c0.57-1.754,1.04-3.556,1.409-5.396L130.075,123.389z"/>
	<path id="path74" d="M95.107,115.097c0,15.066-12.215,27.283-27.282,27.283c-15.068,0-27.284-12.215-27.284-27.283
		s12.215-27.284,27.284-27.284l0,0C82.893,87.812,95.107,100.027,95.107,115.097z"/>
	<path fill="#FFFFFF" d="M55.084,119.415v-1.164c-0.283,0.415-0.655,0.742-1.117,0.979c-0.461,0.239-0.948,0.359-1.461,0.359
		c-0.522,0-0.991-0.115-1.406-0.344c-0.415-0.229-0.715-0.553-0.9-0.968c-0.187-0.415-0.278-0.988-0.278-1.722v-4.922h2.058v3.574
		c0,1.094,0.038,1.764,0.113,2.011c0.076,0.246,0.214,0.441,0.414,0.586s0.454,0.216,0.762,0.216c0.353,0,0.667-0.097,0.945-0.289
		s0.469-0.433,0.571-0.718c0.103-0.286,0.153-0.985,0.153-2.099v-3.281h2.059v7.778h-1.912V119.415z"/>
	<path fill="#FFFFFF" d="M66.203,119.415h-2.059v-3.971c0-0.84-0.044-1.383-0.132-1.63c-0.088-0.246-0.229-0.438-0.429-0.574
		c-0.197-0.137-0.437-0.204-0.714-0.204c-0.356,0-0.677,0.098-0.959,0.293c-0.283,0.194-0.479,0.452-0.583,0.774
		c-0.105,0.322-0.157,0.919-0.157,1.787v3.523h-2.058v-7.778h1.911v1.143c0.68-0.879,1.533-1.317,2.563-1.317
		c0.454,0,0.869,0.082,1.245,0.245c0.376,0.164,0.66,0.373,0.854,0.627c0.192,0.254,0.327,0.541,0.402,0.862
		c0.075,0.322,0.114,0.784,0.114,1.386V119.415z"/>
	<path fill="#FFFFFF" d="M68.29,110.582v-1.904h2.058v1.904H68.29z M68.29,119.415v-7.778h2.058v7.778H68.29z"/>
	<path fill="#FFFFFF" d="M76.347,108.678h2.161v6.797c0,0.889-0.078,1.572-0.234,2.051c-0.21,0.625-0.591,1.127-1.143,1.505
		c-0.552,0.379-1.279,0.568-2.183,0.568c-1.061,0-1.875-0.297-2.446-0.891s-0.859-1.463-0.864-2.611l2.043-0.234
		c0.024,0.615,0.115,1.052,0.271,1.306c0.233,0.386,0.591,0.578,1.068,0.578c0.483,0,0.825-0.139,1.025-0.414s0.3-0.849,0.3-1.718
		L76.347,108.678L76.347,108.678z"/>
	<path fill="#FFFFFF" d="M80.265,115.921l2.109-0.205c0.127,0.709,0.385,1.229,0.771,1.561c0.39,0.332,0.912,0.498,1.571,0.498
		c0.698,0,1.224-0.146,1.578-0.442c0.354-0.295,0.531-0.642,0.531-1.036c0-0.254-0.075-0.471-0.225-0.648
		c-0.148-0.178-0.409-0.333-0.779-0.465c-0.255-0.088-0.833-0.244-1.736-0.469c-1.162-0.288-1.979-0.643-2.446-1.062
		c-0.659-0.591-0.989-1.312-0.989-2.161c0-0.547,0.155-1.059,0.466-1.533c0.31-0.478,0.756-0.839,1.34-1.089
		c0.584-0.248,1.288-0.372,2.112-0.372c1.349,0,2.362,0.295,3.043,0.886c0.683,0.591,1.039,1.38,1.073,2.366l-2.168,0.095
		c-0.093-0.552-0.292-0.948-0.597-1.19c-0.306-0.24-0.763-0.361-1.374-0.361c-0.63,0-1.123,0.13-1.479,0.388
		c-0.229,0.167-0.344,0.389-0.344,0.667c0,0.254,0.107,0.472,0.322,0.651c0.272,0.229,0.938,0.469,1.992,0.719
		c1.055,0.248,1.835,0.506,2.34,0.771c0.506,0.267,0.9,0.63,1.187,1.092s0.43,1.031,0.43,1.711c0,0.614-0.171,1.19-0.514,1.729
		c-0.342,0.538-0.824,0.937-1.449,1.197s-1.404,0.392-2.337,0.392c-1.356,0-2.399-0.312-3.127-0.94
		C80.841,118.037,80.407,117.122,80.265,115.921z"/>
  <animateTransform  type="rotate" fill="remove" repeatCount="indefinite" dur="16s" additive="replace" restart="always" accumulate="none" calcMode="linear" to="360 67.701 115.096" attributeType="XML" attributeName="transform" from="0 67.701 115.096">
  </animateTransform>
</g>

<g enable-background="new    ">
  <path fill="#00B0F0" d="M235.623,106.264c0.228-1.83,0.349-3.688,0.363-5.565l14.916-4.264l-0.81-7.204l-15.514-0.508
    c-0.675-2.745-1.566-5.394-2.68-7.915l0.465,0.812l12.518-10.121l-3.559-6.315l-14.695,5.679l-0.313,0.176l0.701,1.229
    c-1.504-2.1-3.171-4.064-4.979-5.887l7.634-13.748l-5.664-4.521l-11.499,10.77l-0.019,0.023c-1.895-1.132-3.869-2.133-5.911-2.998
    l1.617-15.274l-6.981-1.949l-6.178,13.956c-2.336-0.354-4.719-0.535-7.136-0.536l-4.248-14.759l-7.202,0.82l-0.479,15.416
    c-2.426,0.61-4.771,1.399-7.021,2.355l0.295-0.175l-10.317-12.356l-6.258,3.656l5.908,14.605l0.124,0.212
    c-1.651,1.253-3.212,2.612-4.682,4.06l-13.545-7.521l-4.522,5.666l10.599,11.315c-1.115,1.847-2.106,3.771-2.971,5.761
    l-15.137-1.603l-1.95,6.981l13.739,6.082c-0.381,2.37-0.586,4.791-0.604,7.246l-14.916,4.267l0.808,7.203l15.515,0.508
    c0.572,2.327,1.309,4.579,2.198,6.748l-11.501,9.299l3.559,6.314l13.746-5.312c1.312,1.776,2.742,3.455,4.277,5.027l-7.431,13.382
    l5.665,4.521l11.138-10.43c2.233,1.367,4.576,2.565,7.02,3.558l-1.646,15.561l6.98,1.949l6.377-14.406v-0.002
    c1.911,0.254,3.854,0.387,5.817,0.407l4.333,15.056l7.202-0.82l0.483-15.61c2.888-0.703,5.667-1.653,8.309-2.841l9.524,11.408
    l6.259-3.655l-5.635-13.93c1.347-1.066,2.629-2.207,3.851-3.407l13.584,7.543l4.521-5.663l-10.622-11.342
    c1.38-2.279,2.578-4.675,3.568-7.169l15.712,1.664l1.949-6.981l-14.406-6.375L235.623,106.264z"/>
  <path id="path38" d="M215.314,96.972c1.705,14.973-9.049,28.492-24.021,30.197c-14.971,1.705-28.49-9.049-30.196-24.021
    c-1.706-14.971,9.049-28.491,24.021-30.196l0,0C200.089,71.247,213.609,82.001,215.314,96.972z"/>
  <path fill="#FFFFFF" d="M171.292,94.505h4.292c0.85,0,1.483,0.035,1.9,0.105c0.418,0.07,0.791,0.22,1.121,0.443
    c0.328,0.225,0.604,0.523,0.822,0.896c0.222,0.374,0.33,0.793,0.33,1.257c0,0.504-0.136,0.965-0.406,1.385
    s-0.639,0.734-1.103,0.945c0.654,0.188,1.157,0.515,1.509,0.974c0.353,0.459,0.527,0.999,0.527,1.618
    c0,0.488-0.113,0.964-0.341,1.425c-0.228,0.462-0.537,0.83-0.931,1.105s-0.878,0.445-1.454,0.51
    c-0.36,0.039-1.231,0.062-2.614,0.072h-3.654L171.292,94.505L171.292,94.505z M173.46,96.292v2.482h1.421
    c0.845,0,1.37-0.013,1.575-0.037c0.371-0.044,0.662-0.172,0.875-0.385c0.212-0.212,0.318-0.491,0.318-0.838
    c0-0.332-0.093-0.603-0.274-0.81c-0.184-0.208-0.456-0.333-0.817-0.378c-0.215-0.023-0.832-0.036-1.853-0.036L173.46,96.292
    L173.46,96.292z M173.46,100.562v2.871h2.007c0.781,0,1.276-0.021,1.487-0.066c0.322-0.059,0.584-0.2,0.787-0.429
    c0.202-0.227,0.304-0.53,0.304-0.911c0-0.321-0.078-0.596-0.234-0.819c-0.155-0.225-0.382-0.39-0.678-0.491
    c-0.296-0.103-0.937-0.153-1.923-0.153L173.46,100.562L173.46,100.562z"/>
  <path fill="#FFFFFF" d="M187.222,105.241v-1.163c-0.282,0.415-0.653,0.741-1.116,0.979c-0.461,0.239-0.947,0.359-1.461,0.359
    c-0.521,0-0.99-0.115-1.406-0.345c-0.414-0.229-0.715-0.552-0.9-0.967c-0.185-0.415-0.278-0.989-0.278-1.722v-4.922h2.059v3.574
    c0,1.094,0.038,1.764,0.113,2.011c0.075,0.246,0.215,0.44,0.414,0.586c0.2,0.144,0.454,0.216,0.762,0.216
    c0.352,0,0.667-0.097,0.944-0.289c0.278-0.193,0.47-0.433,0.571-0.718c0.104-0.286,0.153-0.985,0.153-2.099v-3.281h2.059v7.777
    h-1.913V105.241z"/>
  <path fill="#FFFFFF" d="M191.265,96.409v-1.904h2.06v1.904H191.265z M191.265,105.241v-7.777h2.06v7.777H191.265L191.265,105.241z"
    />
  <path fill="#FFFFFF" d="M195.433,105.241V94.505h2.06v10.736H195.433z"/>
  <path fill="#FFFFFF" d="M206.734,105.241h-1.911v-1.143c-0.317,0.444-0.692,0.775-1.124,0.992
    c-0.434,0.218-0.868,0.326-1.309,0.326c-0.894,0-1.658-0.36-2.296-1.08c-0.638-0.722-0.956-1.726-0.956-3.015
    c0-1.317,0.311-2.32,0.932-3.007c0.619-0.687,1.402-1.028,2.351-1.028c0.869,0,1.621,0.36,2.256,1.084v-3.867h2.059
    L206.734,105.241L206.734,105.241z M201.241,101.184c0,0.83,0.114,1.431,0.344,1.802c0.332,0.537,0.796,0.807,1.392,0.807
    c0.475,0,0.877-0.201,1.208-0.604c0.332-0.401,0.498-1.004,0.498-1.805c0-0.896-0.159-1.537-0.481-1.931s-0.735-0.59-1.238-0.59
    c-0.488,0-0.896,0.193-1.227,0.582C201.406,99.833,201.241,100.413,201.241,101.184z"/>
  <animateTransform  type="rotate" fill="remove" repeatCount="indefinite" dur="16s" additive="replace" restart="always" accumulate="none" calcMode="linear" to="0 188.205 99.961" attributeType="XML" attributeName="transform" from="360 188.205 99.961">
  </animateTransform>
</g>

<g id="your_code" enable-background="new    ">
  <path id="path76" fill="#F28226" d="M129.325,5.682l26.566,28.173c1.646,2.294,2.312,5.148,1.854,7.936l-7.544,4.472l1.689,4.683
    l-3.687,3.663c-3.864,1.05-7.759,1.99-11.677,2.818c-1.504,3.056-3.047,6.092-4.629,9.106l-10.241,4.062
    c-1.079,0.999-2.119,2.039-3.118,3.118l-5.62-5.355l-6.37-0.72l-2.308-8.959c-3.184-0.766-6.384-1.452-9.6-2.062l-8.604-9.168
    c-3.557-4.225-3.554-10.396,0.007-14.615l28.582-27.107C118.853,2.108,125.078,2.09,129.325,5.682L129.325,5.682z"/>
	<path fill="#FFFFFF" d="M107.517,46.905l-3.336-3.479l-7.619-1.883l1.957-1.877l5.081,1.406l-1.229-5.099l1.923-1.844l1.562,7.713
		l3.326,3.468L107.517,46.905z"/>
	<path fill="#FFFFFF" d="M108.86,39.706c-0.504-0.525-0.861-1.159-1.075-1.901c-0.213-0.741-0.206-1.47,0.021-2.185
		c0.228-0.715,0.633-1.354,1.22-1.918c0.905-0.869,1.931-1.287,3.073-1.252c1.144,0.033,2.146,0.498,3.008,1.396
		c0.868,0.906,1.296,1.938,1.283,3.093c-0.014,1.156-0.464,2.16-1.352,3.011c-0.549,0.526-1.19,0.904-1.927,1.135
		c-0.736,0.229-1.465,0.229-2.184-0.002C110.208,40.854,109.52,40.395,108.86,39.706z M110.565,38.233
		c0.57,0.594,1.147,0.914,1.732,0.959c0.584,0.045,1.083-0.13,1.496-0.527c0.414-0.396,0.608-0.887,0.587-1.471
		c-0.022-0.584-0.323-1.178-0.899-1.779c-0.562-0.586-1.135-0.902-1.718-0.949s-1.081,0.127-1.495,0.523
		c-0.413,0.396-0.608,0.889-0.588,1.475C109.701,37.05,109.996,37.64,110.565,38.233z"/>
	<path fill="#FFFFFF" d="M123.176,31.89l-0.86-0.896c0.089,0.528,0.043,1.057-0.135,1.582c-0.18,0.523-0.466,0.976-0.859,1.354
		c-0.403,0.386-0.85,0.645-1.338,0.773s-0.959,0.103-1.406-0.08c-0.449-0.183-0.944-0.557-1.485-1.119l-3.633-3.79l1.584-1.521
		l2.639,2.752c0.809,0.842,1.332,1.332,1.572,1.465c0.239,0.133,0.49,0.183,0.751,0.145c0.26-0.037,0.509-0.169,0.746-0.396
		c0.271-0.258,0.44-0.565,0.513-0.92c0.072-0.354,0.043-0.679-0.09-0.975c-0.131-0.295-0.608-0.872-1.43-1.729l-2.423-2.526
		l1.585-1.521l5.741,5.988L123.176,31.89z"/>
	<path fill="#FFFFFF" d="M127.806,27.45l-1.585,1.521l-5.743-5.988l1.474-1.411l0.815,0.852c-0.135-0.645-0.162-1.126-0.084-1.446
		c0.079-0.321,0.246-0.604,0.502-0.849c0.36-0.346,0.804-0.58,1.33-0.701l0.834,1.852c-0.434,0.084-0.764,0.235-0.993,0.455
		c-0.222,0.213-0.352,0.455-0.388,0.725c-0.038,0.27,0.053,0.607,0.271,1.012c0.217,0.404,0.814,1.115,1.792,2.135L127.806,27.45z"
		/>
	<path fill="#FFFFFF" d="M121.009,54.735l2.111-1.039c0.616,1.14,0.847,2.205,0.688,3.196c-0.157,0.991-0.679,1.912-1.565,2.763
		c-1.099,1.053-2.359,1.543-3.785,1.471c-1.426-0.071-2.763-0.758-4.01-2.059c-1.319-1.375-1.988-2.785-2.009-4.228
		c-0.02-1.443,0.55-2.72,1.707-3.83c1.012-0.97,2.119-1.459,3.324-1.468c0.715-0.006,1.482,0.23,2.306,0.712l-1.273,1.979
		c-0.508-0.336-1.037-0.479-1.584-0.43c-0.549,0.049-1.045,0.287-1.488,0.712c-0.613,0.587-0.897,1.284-0.857,2.09
		c0.039,0.806,0.531,1.701,1.478,2.687c1.002,1.045,1.904,1.609,2.705,1.691c0.801,0.084,1.502-0.164,2.104-0.74
		c0.443-0.426,0.689-0.933,0.74-1.521C121.646,56.137,121.45,55.473,121.009,54.735z"/>
	<path fill="#FFFFFF" d="M123.645,52.132c-0.505-0.526-0.862-1.16-1.077-1.901c-0.213-0.741-0.204-1.47,0.021-2.185
		s0.633-1.354,1.22-1.917c0.905-0.869,1.932-1.287,3.074-1.253c1.144,0.033,2.146,0.498,3.007,1.396
		c0.868,0.906,1.298,1.938,1.283,3.094c-0.014,1.156-0.463,2.16-1.351,3.01c-0.549,0.527-1.191,0.904-1.928,1.134
		c-0.735,0.229-1.465,0.229-2.184-0.001C124.993,53.278,124.304,52.819,123.645,52.132z M125.35,50.659
		c0.569,0.594,1.146,0.914,1.731,0.959s1.084-0.131,1.498-0.527c0.412-0.396,0.606-0.887,0.586-1.471
		c-0.023-0.584-0.323-1.178-0.9-1.779c-0.562-0.586-1.135-0.903-1.717-0.95c-0.584-0.047-1.082,0.127-1.495,0.524
		c-0.414,0.396-0.61,0.888-0.589,1.474C124.485,49.475,124.781,50.064,125.35,50.659z"/>
	<path fill="#FFFFFF" d="M139.51,42.827l-1.472,1.412l-0.844-0.879c0.084,0.575,0.039,1.107-0.133,1.594
		c-0.174,0.485-0.429,0.892-0.767,1.216c-0.688,0.659-1.543,0.946-2.565,0.862c-1.021-0.084-2.01-0.621-2.962-1.615
		c-0.973-1.014-1.475-2.016-1.503-3c-0.027-0.985,0.321-1.829,1.051-2.528c0.67-0.642,1.516-0.918,2.536-0.831l-2.854-2.977
		l1.586-1.521L139.51,42.827z M132.284,43.76c0.613,0.639,1.146,1.017,1.596,1.133c0.652,0.168,1.207,0.033,1.666-0.407
		c0.365-0.35,0.526-0.802,0.484-1.356c-0.041-0.556-0.357-1.142-0.949-1.759c-0.66-0.688-1.259-1.063-1.797-1.129
		c-0.538-0.064-1.002,0.09-1.39,0.461c-0.376,0.359-0.547,0.812-0.514,1.354C131.414,42.597,131.715,43.165,132.284,43.76z"/>
	<path fill="#FFFFFF" d="M142.712,36.098l1.832-1.249c0.354,0.773,0.455,1.521,0.307,2.244c-0.146,0.722-0.55,1.398-1.206,2.029
		c-1.043,1-2.141,1.397-3.291,1.197c-0.918-0.166-1.775-0.666-2.572-1.496c-0.951-0.994-1.438-2.02-1.457-3.078
		c-0.021-1.061,0.366-1.971,1.159-2.73c0.892-0.854,1.876-1.234,2.956-1.141c1.077,0.096,2.188,0.761,3.331,1.996l-3.971,3.808
		c0.462,0.459,0.939,0.702,1.437,0.729c0.494,0.026,0.924-0.136,1.289-0.484c0.248-0.238,0.392-0.506,0.432-0.803
		C142.995,36.823,142.913,36.482,142.712,36.098z M141.267,34.409c-0.45-0.447-0.903-0.682-1.357-0.705
		c-0.455-0.021-0.844,0.123-1.167,0.433c-0.346,0.332-0.511,0.731-0.495,1.2c0.017,0.468,0.233,0.917,0.651,1.345L141.267,34.409z"
		/>
</g>


</svg>
