<?xml version="1.0" encoding="utf-8"?>
<!-- Generator: Adobe Illustrator 16.0.0, SVG Export Plug-In . SVG Version: 6.00 Build 0)  -->
<!DOCTYPE svg PUBLIC "-//W3C//DTD SVG 1.1//EN" "http://www.w3.org/Graphics/SVG/1.1/DTD/svg11.dtd">
<svg version="1.1"
	 id="svg2" xmlns:svg="http://www.w3.org/2000/svg" xmlns:cc="http://creativecommons.org/ns#" xmlns:dc="http://purl.org/dc/elements/1.1/" xmlns:rdf="http://www.w3.org/1999/02/22-rdf-syntax-ns#"
	 xmlns="http://www.w3.org/2000/svg" xmlns:xlink="http://www.w3.org/1999/xlink" x="0px" y="0px" width="192.852px"
	 height="63.562px" viewBox="0 0 192.852 63.562" enable-background="new 0 0 192.852 63.562" xml:space="preserve">
<g>
	<path id="path4" fill="#00B0F0" d="M44.378,35.515c0.188-0.573,0.344-1.162,0.465-1.766l0,0l5.072-0.46l0.181-2.369l-4.977-1.119
		c-0.048-0.912-0.16-1.809-0.361-2.676l0,0l0.089,0.254l4.658-2.496l-0.758-2.252l-5.087,0.927l-0.115,0.039l0.151,0.451
		c-0.352-0.772-0.778-1.508-1.249-2.21l0,0l3.314-3.968l-1.549-1.806l-4.362,2.769l-0.021,0.018c-0.54-0.48-1.11-0.931-1.712-1.333
		l0,0l1.459-4.831l-2.13-1.058l-2.855,4.135c-0.731-0.258-1.481-0.471-2.258-0.62l0,0l-0.459-5.021l-2.369-0.178l-1.101,4.952
		c-0.82,0.049-1.622,0.151-2.398,0.322l0,0l0.105-0.037l-2.573-4.62l-2.238,0.794l1.011,5.069l0.029,0.087
		c-0.612,0.303-1.195,0.641-1.759,1.016l0,0l-3.911-3.262l-1.805,1.549l2.727,4.306c-0.472,0.527-0.913,1.083-1.313,1.667l0,0
		l-4.789-1.449l-1.059,2.129l4.063,2.81c-0.271,0.74-0.488,1.503-0.644,2.294l0,0l-5.073,0.459l-0.179,2.368l4.977,1.117
		c0.042,0.785,0.141,1.551,0.296,2.305l0,0l-4.285,2.291l0.759,2.256l4.766-0.871c0.313,0.647,0.669,1.276,1.066,1.874l0,0
		l-3.227,3.866l1.549,1.804l4.241-2.688c0.636,0.581,1.31,1.119,2.038,1.584l0,0l-1.489,4.916l2.13,1.057l2.939-4.253l0.014-0.021
		c0.718,0.242,1.456,0.446,2.22,0.578l0,0l0.472,5.118l2.367,0.181l1.122-5.048l0.005-0.074c0.753-0.058,1.489-0.153,2.208-0.313
		l0,0l2.374,4.266l2.24-0.795l-0.952-4.786c0.581-0.287,1.142-0.616,1.678-0.97l0,0l3.923,3.275l1.806-1.55L41.102,41.2
		c0.583-0.647,1.124-1.338,1.591-2.081l0,0l4.966,1.503l1.059-2.135l-4.253-2.939L44.378,35.515L44.378,35.515z"/>

		<animateTransform  type="rotate" fill="remove" repeatCount="indefinite" dur="3.2" additive="replace" restart="always" accumulate="none" calcMode="linear" to="0 29.592 30.635" attributeType="XML" attributeName="transform" from="360 29.592 30.635">
		</animateTransform>
</g>
<g>
	<path id="path6" fill="#00B0F0" d="M176.858,36.435c0.209-0.567,0.389-1.149,0.532-1.748l0,0l5.086-0.264l0.272-2.36l-4.93-1.31
		c-0.013-0.914-0.09-1.814-0.258-2.688l0,0l0.079,0.259l4.751-2.313l-0.672-2.28l-5.117,0.729l-0.119,0.034l0.136,0.457
		c-0.323-0.784-0.721-1.537-1.163-2.257l0,0l3.464-3.837l-1.478-1.863l-4.466,2.597l-0.02,0.017c-0.522-0.5-1.076-0.973-1.662-1.397
		l0,0l1.646-4.771l-2.089-1.141l-3.013,4.021c-0.721-0.284-1.461-0.527-2.231-0.706l0,0l-0.266-5.036l-2.36-0.268l-1.291,4.905
		c-0.821,0.017-1.628,0.088-2.411,0.229l0,0l0.106-0.032l-2.391-4.717l-2.268,0.707l0.813,5.104l0.026,0.09
		c-0.623,0.277-1.219,0.594-1.797,0.947l0,0l-3.783-3.412l-1.862,1.479l2.558,4.41c-0.49,0.506-0.953,1.045-1.375,1.613l0,0
		l-4.729-1.633l-1.141,2.087l3.951,2.965c-0.298,0.729-0.545,1.484-0.731,2.268l0,0l-5.09,0.265l-0.271,2.359l4.93,1.308
		c0.012,0.787,0.082,1.558,0.208,2.314l0,0l-4.371,2.124l0.672,2.285l4.796-0.688c0.289,0.659,0.619,1.3,0.994,1.913l0,0
		l-3.375,3.739l1.479,1.862l4.343-2.521c0.613,0.605,1.265,1.169,1.975,1.661l0,0l-1.679,4.854l2.089,1.142l3.101-4.139l0.015-0.02
		c0.71,0.27,1.439,0.503,2.197,0.663l0,0l0.273,5.134l2.358,0.271l1.316-5.002l0.008-0.073c0.755-0.028,1.496-0.096,2.219-0.228l0,0
		l2.207,4.354l2.27-0.71l-0.766-4.817c0.591-0.266,1.164-0.571,1.714-0.904l0,0l3.793,3.425l1.864-1.479l-2.564-4.425
		c0.608-0.626,1.175-1.295,1.67-2.02l0,0l4.903,1.693l1.142-2.091l-4.136-3.104L176.858,36.435L176.858,36.435L176.858,36.435z"/>

		<animateTransform  type="rotate" fill="remove" repeatCount="indefinite" dur="3.2" additive="replace" restart="always" accumulate="none" calcMode="linear" to="0 162.109 30.635" attributeType="XML" attributeName="transform" from="360 162.109 30.635">
		</animateTransform>
</g>
<g id="tooth">
	<path id="path8" fill="#00B0F0" d="M-1.205,4.114l0.011-0.155l1.252-6.518l2.67,0.224l0.559,6.793L-1.205,4.114L-1.205,4.114
		L-1.205,4.114z"/>

		<animateMotion  fill="freeze" repeatCount="indefinite" begin="0" dur="9.4" additive="replace" restart="always" accumulate="none" calcMode="linear" rotate="auto">
		<mpath  xlink:href="#belt" xmlns:xlink="http://www.w3.org/1999/xlink"></mpath>
	</animateMotion>
</g>
<path id="path10" fill="#231815" d="M29.361,21.12c-5.321,0-9.639,4.315-9.639,9.638l0,0c0,5.326,4.315,9.642,9.639,9.642l0,0
	c5.323,0,9.641-4.315,9.641-9.642l0,0C38.999,25.435,34.684,21.12,29.361,21.12L29.361,21.12L29.361,21.12z M29.361,35.891
	c-2.836,0-5.137-2.298-5.137-5.138l0,0c0-2.838,2.299-5.137,5.137-5.137l0,0c2.839,0,5.139,2.299,5.139,5.137l0,0
	C34.497,33.594,32.198,35.891,29.361,35.891L29.361,35.891L29.361,35.891z"/>
<path id="path12" fill="#231815" d="M162.111,21.276c-5.322,0-9.64,4.313-9.64,9.638l0,0c0,5.326,4.315,9.643,9.64,9.643l0,0
	c5.324,0,9.642-4.316,9.642-9.643l0,0C171.75,25.591,167.435,21.276,162.111,21.276L162.111,21.276L162.111,21.276z M162.111,36.047
	c-2.835,0-5.137-2.297-5.137-5.136l0,0c0-2.838,2.296-5.137,5.137-5.137l0,0c2.842,0,5.139,2.299,5.139,5.137l0,0
	C167.247,33.75,164.948,36.047,162.111,36.047L162.111,36.047L162.111,36.047z"/>
<path id="belt_out" fill="none" stroke="#00B0F0" stroke-width="4.08" stroke-linecap="round" stroke-linejoin="round" d="
	M162.422,5.112C118.168,9.228,73.623,9.117,29.391,4.781C15.023,4.732,3.335,16.34,3.286,30.708
	c-0.05,14.368,11.559,26.058,25.927,26.104c0.06,0,0.118,0,0.178,0c44.2,3.924,88.662,3.924,132.862,0
	c14.274,0.145,25.968-11.312,26.112-25.587c0.144-14.276-11.312-25.969-25.589-26.112C162.659,5.112,162.54,5.111,162.422,5.112"/>
<path id="belt" fill="none" stroke="#F28226" stroke-width="0" stroke-linecap="round" stroke-linejoin="round" d="
	M163.268,53.231c11.675,0.041,21.172-9.888,21.213-22.175c0.039-12.29-9.392-22.287-21.065-22.33c-0.11,0-0.224,0-0.333,0.002
	c-44.93,4.777-90.206,4.625-135.104-0.454C16.341,8.359,6.975,18.358,7.056,30.605c0.08,12.129,9.399,21.939,20.92,22.023
	C72.993,56.464,118.222,56.666,163.268,53.231z"/>
</svg>
